HIERARCHY
ROOT Hips
{
  OFFSET 0.000000 0.000000 0.000000
  CHANNELS 6 Xposition Yposition Zposition Xrotation Yrotation Zrotation
  JOINT Spine
  {
    OFFSET 1.029272 24.139234 -3.309675
    CHANNELS 3 Xrotation Yrotation Zrotation
    JOINT Chest
    {
      OFFSET 1.029272 24.139234 -3.309675
      CHANNELS 3 Xrotation Yrotation Zrotation
      JOINT Neck
      {
        OFFSET 0.000000 6.442996 0.000000
        CHANNELS 3 Xrotation Yrotation Zrotation
        JOINT Head
        {
          OFFSET 0.000000 7.107403 0.000000
          CHANNELS 3 Xrotation Yrotation Zrotation
          End Site
          {
            OFFSET 0.000000 2.132221 0.000000
          }
        }
      }
      JOINT LeftCollar
      {
        OFFSET 3.000000 4.000000 0.000000
        CHANNELS 3 Xrotation Yrotation Zrotation
        JOINT LeftShoulder
        {
          OFFSET 15.824782 -3.385161 -4.490161
          CHANNELS 3 Xrotation Yrotation Zrotation
          JOINT LeftArm
          {
            OFFSET 6.638871 -21.899489 2.577768
            CHANNELS 3 Xrotation Yrotation Zrotation
            JOINT LeftForeArm
            {
              OFFSET 1.662469 -23.769893 2.728891
              CHANNELS 3 Xrotation Yrotation Zrotation
              JOINT LeftHand
              {
                OFFSET -1.157011 -3.989585 -0.720753
                CHANNELS 3 Xrotation Yrotation Zrotation
                End Site
                {
                  OFFSET -0.347103 -1.196876 -0.216226
                }
              }
            }
          }
        }
      }
      JOINT RightCollar
      {
        OFFSET -3.000000 4.000000 0.000000
        CHANNELS 3 Xrotation Yrotation Zrotation
        JOINT RightShoulder
        {
          OFFSET -15.824782 3.385161 4.490161
          CHANNELS 3 Xrotation Yrotation Zrotation
          JOINT RightArm
          {
            OFFSET -4.830150 -29.706995 -0.659229
            CHANNELS 3 Xrotation Yrotation Zrotation
            JOINT RightForeArm
            {
              OFFSET -6.735460 -18.902062 -7.831287
              CHANNELS 3 Xrotation Yrotation Zrotation
              JOINT RightHand
              {
                OFFSET 1.562441 -2.563879 -3.933201
                CHANNELS 3 Xrotation Yrotation Zrotation
                End Site
                {
                  OFFSET 0.468732 -0.769164 -1.179960
                }
              }
            }
          }
        }
      }
    }
  }
  JOINT LeftUpLeg
  {
    OFFSET 8.875314 -0.675327 -0.291526
    CHANNELS 3 Xrotation Yrotation Zrotation
    JOINT LeftLeg
    {
      OFFSET -2.390302 -38.516964 -5.036820
      CHANNELS 3 Xrotation Yrotation Zrotation
      JOINT LeftFoot
      {
        OFFSET -8.730226 -38.998584 -0.067483
        CHANNELS 3 Xrotation Yrotation Zrotation
        End Site
        {
          OFFSET -2.619068 -11.699575 -0.020245
        }
      }
    }
  }
  JOINT RightUpLeg
  {
    OFFSET -8.875314 0.675327 0.291526
    CHANNELS 3 Xrotation Yrotation Zrotation
    JOINT RightLeg
    {
      OFFSET 8.015065 -34.486904 0.724164
      CHANNELS 3 Xrotation Yrotation Zrotation
      JOINT RightFoot
      {
        OFFSET 4.389306 -41.028927 12.321156
        CHANNELS 3 Xrotation Yrotation Zrotation
        End Site
        {
          OFFSET 1.316792 -12.308678 3.696347
        }
      }
    }
  }
}
MOTION
Frames: 19
Frame Time: 0.083333
0.123758 0.139774 0.105676 2.003830 -0.021022 0.526331 0.000000 0.000000 0.000000 -5.712725 40.902109 -9.978273 -57.711376 -22.223272 -16.326842 0.000000 0.000000 0.000000 10.416718 -15.589306 13.154325 6.083363 -20.603216 -0.545685 -8.440004 -6.612609 -24.150746 4.926815 15.390961 -12.290654 0.000000 0.000000 0.000000 10.416718 -15.589306 13.154325 0.000000 0.000000 0.000000 0.000000 0.000000 0.000000 0.000000 0.000000 0.000000 0.000000 0.000000 0.000000 -15.270245 0.841214 7.959885 -1.870014 6.066754 7.502266 0.000000 0.000000 0.000000 -3.544898 -1.102861 -21.962990 14.832201 3.085644 -6.863030 0.000000 0.000000 0.000000
0.124982 0.138530 0.108307 1.978502 -0.019808 0.519184 0.000000 0.000000 0.000000 -5.707744 40.970625 -9.852612 -57.798122 -22.115960 -16.475509 0.000000 0.000000 0.000000 10.449692 -15.586711 13.197370 6.046945 -20.661676 -0.546908 -8.257416 -6.511812 -23.964585 4.997523 15.154708 -12.171058 0.000000 0.000000 0.000000 10.449692 -15.586711 13.197370 0.000000 0.000000 0.000000 0.000000 0.000000 0.000000 0.000000 0.000000 0.000000 0.000000 0.000000 0.000000 -15.562024 0.881620 7.948074 -1.532351 6.002115 7.048770 0.000000 0.000000 0.000000 -3.397137 -1.054648 -21.871617 14.476868 2.855817 -6.632012 0.000000 0.000000 0.000000
0.130044 0.135250 0.116202 3.671359 -0.136506 0.170004 0.000000 0.000000 0.000000 -5.812351 39.598291 -9.952072 -57.098197 -22.148655 -14.259074 0.000000 0.000000 0.000000 9.017635 -15.551010 13.381563 5.107687 -19.729257 -0.279587 -6.339224 -5.437331 -23.311804 4.033629 12.547633 -11.151684 0.000000 0.000000 0.000000 9.017635 -15.551010 13.381563 0.000000 0.000000 0.000000 0.000000 0.000000 0.000000 0.000000 0.000000 0.000000 0.000000 0.000000 0.000000 -15.275726 0.593325 10.157236 -11.800863 13.017334 10.581690 0.000000 0.000000 0.000000 -3.966476 -0.418265 -19.695083 12.919730 1.666762 -5.419254 0.000000 0.000000 0.000000
0.137664 0.131538 0.127015 4.494678 -0.212597 -0.222475 0.000000 0.000000 0.000000 -5.927480 37.940399 -8.842105 -56.748234 -20.745457 -12.572626 0.000000 0.000000 0.000000 8.268741 -15.516288 13.693132 4.289836 -18.335029 -0.074277 -2.573165 -3.691356 -19.571935 3.851212 7.703799 -8.981596 0.000000 0.000000 0.000000 8.268741 -15.516288 13.693132 0.000000 0.000000 0.000000 0.000000 0.000000 0.000000 0.000000 0.000000 0.000000 0.000000 0.000000 0.000000 -16.104097 0.543859 11.326049 -18.031401 17.900286 11.046520 0.000000 0.000000 0.000000 -4.205403 -0.047685 -16.752357 10.883170 0.514909 -2.863851 0.000000 0.000000 0.000000
0.142073 0.129539 0.135358 4.082127 -0.224630 -0.508497 0.000000 0.000000 0.000000 -6.159917 34.245195 -7.530957 -55.608400 -18.252384 -9.470054 0.000000 0.000000 0.000000 8.281050 -15.518201 13.526565 3.796393 -14.912214 -0.102854 1.771495 -2.220942 -13.065361 3.325203 2.487490 -6.504985 0.000000 0.000000 0.000000 8.281050 -15.518201 13.526565 0.000000 0.000000 0.000000 0.000000 0.000000 0.000000 0.000000 0.000000 0.000000 0.000000 0.000000 0.000000 -14.803999 0.374568 10.857640 -20.758817 18.821782 11.108049 0.000000 0.000000 0.000000 -5.412976 -0.609679 -13.654783 11.979588 1.767224 -1.462447 0.000000 0.000000 0.000000
0.142972 0.129703 0.127706 3.134904 -0.185638 -0.485253 0.000000 0.000000 0.000000 -6.473562 28.825237 -7.044348 -53.922458 -15.795175 -5.691043 0.000000 0.000000 0.000000 8.589201 -15.528180 12.941770 2.551189 -10.170137 -0.319787 4.671076 -1.320296 -7.254763 1.501487 -0.811056 -4.691935 0.000000 0.000000 0.000000 8.589201 -15.528180 12.941770 0.000000 0.000000 0.000000 0.000000 0.000000 0.000000 0.000000 0.000000 0.000000 0.000000 0.000000 0.000000 -12.476536 0.203532 9.817246 -18.008321 14.842886 8.075270 0.000000 0.000000 0.000000 -5.476453 -0.906169 -10.929553 12.026292 1.848051 -1.376662 0.000000 0.000000 0.000000
0.143476 0.131372 0.106159 2.071111 -0.125004 -0.319902 0.000000 0.000000 0.000000 -6.750384 23.548986 -7.517243 -52.750950 -14.202240 -2.910687 0.000000 0.000000 0.000000 8.972274 -15.523155 12.415489 1.446968 -5.528395 0.249700 4.531677 -0.873761 -4.072549 1.691842 -1.504626 -3.865601 0.000000 0.000000 0.000000 8.972274 -15.523155 12.415489 0.000000 0.000000 0.000000 0.000000 0.000000 0.000000 0.000000 0.000000 0.000000 0.000000 0.000000 0.000000 -9.793246 0.056201 8.232760 -9.999277 8.296465 4.558840 0.000000 0.000000 0.000000 -4.526468 -0.899623 -9.027050 12.044945 1.875758 -0.707131 0.000000 0.000000 0.000000
0.146492 0.133011 0.082420 0.734127 -0.048791 -0.137971 0.000000 0.000000 0.000000 -6.963762 19.198224 -8.177773 -51.574848 -12.858506 -0.219683 0.000000 0.000000 0.000000 9.712205 -15.516053 12.141205 1.363891 -1.459602 0.507353 2.774513 -0.646303 -2.645696 1.261710 -1.148918 -2.731457 0.000000 0.000000 0.000000 9.712205 -15.516053 12.141205 0.000000 0.000000 0.000000 0.000000 0.000000 0.000000 0.000000 0.000000 0.000000 0.000000 0.000000 0.000000 -7.239908 0.011099 5.752170 -0.140170 2.163235 2.785614 0.000000 0.000000 0.000000 -2.577672 -0.695670 -7.887847 12.472712 2.373717 1.306653 0.000000 0.000000 0.000000
0.151081 0.132848 0.068566 -0.238229 0.000565 -0.067278 0.000000 0.000000 0.000000 -7.061702 17.115594 -9.022147 -50.976859 -13.033526 0.599520 0.000000 0.000000 0.000000 10.375086 -15.510875 12.078362 1.460653 0.477395 0.084466 0.654434 -0.423438 -0.974090 0.364762 -0.560610 -0.980926 0.000000 0.000000 0.000000 10.375086 -15.510875 12.078362 -0.005738 0.122911 0.114496 -0.101642 -0.003991 0.126150 0.112236 -0.125674 -0.069133 0.000000 0.000000 0.000000 -6.910211 0.197350 3.579078 2.646724 0.993432 0.533565 0.000000 0.000000 0.000000 -2.351221 -0.942508 -7.308134 9.538689 2.449319 4.593741 0.000000 0.000000 0.000000
0.153734 0.130359 0.061502 -0.707683 0.004484 -0.166700 0.000000 0.000000 0.000000 -7.100030 16.282474 -10.163840 -51.008704 -14.438788 0.207818 0.000000 0.000000 0.000000 10.715629 -15.511818 12.105869 0.539857 0.978730 -0.218968 -0.263602 0.006340 0.645736 -0.041191 0.161965 -0.327070 0.000000 0.000000 0.000000 10.715629 -15.511818 12.105869 0.049849 1.063631 0.732747 -0.743312 0.012913 0.741335 0.739213 -0.694286 -0.521649 0.000000 0.000000 0.000000 -5.221155 0.206345 2.349617 6.445368 -0.660585 -0.485130 0.000000 0.000000 0.000000 -3.215780 -1.366862 -7.335607 3.323094 2.135737 8.620916 0.000000 0.000000 0.000000
0.152751 0.126361 0.058480 -2.006827 0.006012 -0.506959 0.000000 0.000000 0.000000 -7.211392 13.835684 -11.174282 -50.796799 -15.411393 0.466420 0.000000 0.000000 0.000000 11.642914 -15.518728 12.220393 0.827699 3.367966 -0.898021 0.028212 0.317670 1.580986 -0.605320 0.673976 -0.921407 0.000000 0.000000 0.000000 11.642914 -15.518728 12.220393 0.377502 3.907530 2.045789 -2.213407 0.084728 1.910224 2.097838 -1.773550 -1.568901 0.000000 0.000000 0.000000 -0.625696 0.143516 1.181144 0.274407 0.262852 1.303201 0.000000 0.000000 0.000000 -3.490792 -1.906130 -7.594399 -1.513283 1.626333 10.224667 0.000000 0.000000 0.000000
0.152098 0.121024 0.058434 -2.381957 -0.035809 -0.887330 0.000000 0.000000 0.000000 -7.374726 10.200291 -11.835732 -51.409853 -15.205110 1.662332 0.000000 0.000000 0.000000 11.569314 -15.520104 12.416566 -0.961544 5.941872 -2.022245 2.840339 1.496363 1.648788 -2.340595 1.414854 -1.600972 0.000000 0.000000 0.000000 11.569314 -15.520104 12.416566 1.010943 7.648997 2.748575 -3.001692 -0.029209 2.627691 2.764185 -2.460008 -2.271640 0.000000 0.000000 0.000000 4.145318 0.087602 0.162553 -8.674683 1.574896 2.434509 0.000000 0.000000 0.000000 -1.861531 -1.557041 -9.235501 -9.347273 -0.346198 13.149866 0.000000 0.000000 0.000000
0.151593 0.117460 0.061760 -0.754921 -0.158380 -1.341062 0.000000 0.000000 0.000000 -7.451826 8.464468 -11.692473 -53.046220 -14.558066 2.515099 0.000000 0.000000 0.000000 9.703499 -15.515856 12.499520 -3.386659 6.129896 -3.004393 7.215981 3.055206 1.273703 -4.272893 1.661119 -3.161101 0.000000 0.000000 0.000000 9.703499 -15.515856 12.499520 1.224948 9.022189 2.383480 -1.870361 -1.062257 4.125409 1.850745 -3.669899 -2.081754 0.000000 0.000000 0.000000 0.631309 0.238905 0.784321 -11.286533 2.702947 3.584466 0.000000 0.000000 0.000000 1.293547 0.152161 -10.945502 -18.899066 -4.190118 14.964919 0.000000 0.000000 0.000000
0.148792 0.118938 0.066430 -0.012510 -0.254126 -1.857060 0.000000 0.000000 0.000000 -7.454997 8.466807 -10.888821 -52.565356 -14.094488 2.941551 0.000000 0.000000 0.000000 8.868310 -15.513799 12.463900 -2.350668 6.263194 -4.188742 8.255394 3.055073 0.269661 -4.505589 1.824114 -5.893690 0.000000 0.000000 0.000000 8.868310 -15.513799 12.463900 1.819183 8.725636 1.521062 -1.406125 -2.357187 6.828917 0.256889 -3.867544 -3.320973 0.000000 0.000000 0.000000 -2.678562 0.383532 1.290077 -11.257704 3.314305 4.738656 0.000000 0.000000 0.000000 4.640832 1.784081 -11.233904 -20.888936 -6.465428 13.242857 0.000000 0.000000 0.000000
0.144488 0.126203 0.069698 0.101411 -0.278302 -2.012745 0.000000 0.000000 0.000000 -7.425686 9.171888 -9.670802 -51.687968 -13.064429 3.074749 0.000000 0.000000 0.000000 8.733491 -15.510019 12.355859 -0.574166 6.296330 -4.735703 11.583180 3.072894 -3.306574 -4.729001 2.164930 -11.627529 0.000000 0.000000 0.000000 8.733491 -15.510019 12.355859 2.543533 7.733262 0.503273 -1.213544 -3.210413 8.073943 -1.167238 -3.134317 -4.209165 0.000000 0.000000 0.000000 -6.534978 0.470739 1.674795 -4.839108 2.640559 5.796823 0.000000 0.000000 0.000000 3.332673 1.360661 -11.482399 -4.484264 -3.863272 6.994238 0.000000 0.000000 0.000000
0.142020 0.135600 0.071892 0.555263 -0.287999 -2.000674 0.000000 0.000000 0.000000 -7.372579 10.372356 -8.371519 -51.788505 -12.324563 2.121523 0.000000 0.000000 0.000000 8.354676 -15.510214 12.232058 2.886303 6.403127 -4.407947 19.629807 3.851069 -9.922050 -5.172245 1.089145 -16.605285 0.000000 0.000000 0.000000 8.354676 -15.510214 12.232058 2.275873 6.274833 -0.442808 -0.627395 -3.930485 8.928481 -2.694218 -2.883298 -4.696852 0.000000 0.000000 0.000000 -7.371674 0.397003 2.810002 -5.900597 3.263566 4.790672 0.000000 0.000000 0.000000 2.212702 1.079316 -10.429181 9.173504 0.055462 -0.207508 0.000000 0.000000 0.000000
0.139476 0.143962 0.075361 1.302905 -0.295055 -1.908942 0.000000 0.000000 0.000000 -7.275661 12.552239 -7.012117 -52.367841 -12.016833 0.269805 0.000000 0.000000 0.000000 7.845865 -15.519745 12.085112 9.482297 6.280313 -5.213394 18.197208 2.614209 -13.872212 -7.029946 0.213745 -17.373216 0.000000 0.000000 0.000000 7.845865 -15.519745 12.085112 2.966832 3.602460 -1.392768 -1.335762 -4.192166 9.137086 -4.592545 -2.652012 -4.825397 0.000000 0.000000 0.000000 -9.028532 0.333529 4.272159 -8.928557 4.719922 3.018510 0.000000 0.000000 0.000000 1.352718 1.017746 -8.942596 12.433877 0.913764 -3.635193 0.000000 0.000000 0.000000
0.133433 0.148188 0.085817 1.338891 -0.250022 -1.554482 0.000000 0.000000 0.000000 -7.258095 12.898153 -6.059915 -52.468385 -10.342005 0.679306 0.000000 0.000000 0.000000 7.888243 -15.538799 12.035097 12.183775 6.512674 -6.024975 14.319819 1.152614 -14.261744 -6.166604 -0.090046 -15.191682 0.000000 0.000000 0.000000 7.888243 -15.538799 12.035097 3.304613 2.936013 -1.891406 -2.177159 -4.345304 9.259335 -4.425429 -1.996843 -5.826373 0.000000 0.000000 0.000000 -10.506588 0.333773 5.668442 -13.958481 7.196983 1.093916 0.000000 0.000000 0.000000 0.433469 0.654684 -6.604344 11.252256 -0.485266 -8.238583 0.000000 0.000000 0.000000
0.124543 0.147064 0.103822 0.630670 -0.125946 -0.790708 0.000000 0.000000 0.000000 -7.304842 11.759585 -5.730060 -51.635934 -7.955523 2.632945 0.000000 0.000000 0.000000 8.523570 -15.558650 12.009805 9.925709 6.830435 -6.686112 10.534427 0.097829 -12.216325 -3.602763 0.738068 -12.582886 0.000000 0.000000 0.000000 8.523570 -15.558650 12.009805 3.596910 3.853308 -1.581389 -1.906209 -4.885161 8.695791 -4.457295 -0.507567 -7.078616 0.000000 0.000000 0.000000 -10.811607 0.359589 6.304796 -22.361331 10.712350 -1.330535 0.000000 0.000000 0.000000 -0.040062 0.168554 -5.450371 12.119481 -0.595800 -10.808690 0.000000 0.000000 0.000000
